<svg xmlns="http://www.w3.org/2000/svg" xmlns:xlink="http://www.w3.org/1999/xlink" width="321" zoomAndPan="magnify" viewBox="0 0 240.75 80.249996" height="107" preserveAspectRatio="xMidYMid meet" version="1.2"><defs><clipPath id="350c4708cb"><path d="M 144.59375 22.902344 L 179.410156 22.902344 L 179.410156 56.335938 L 144.59375 56.335938 Z M 144.59375 22.902344 "/></clipPath><clipPath id="f226da585d"><path d="M 161 24 L 181.742188 24 L 181.742188 41 L 161 41 Z M 161 24 "/></clipPath><clipPath id="a3ea064f49"><path d="M 175 22.902344 L 180 22.902344 L 180 29 L 175 29 Z M 175 22.902344 "/></clipPath><clipPath id="385a7d9331"><path d="M 175.621094 27.144531 L 181.722656 27.144531 L 181.722656 30.917969 L 175.621094 30.917969 Z M 175.621094 27.144531 "/></clipPath></defs><g id="944236a02b"><path style=" stroke:none;fill-rule:nonzero;fill:#46484c;fill-opacity:1;" d="M 161.273438 51.714844 C 158.375 51.714844 155.589844 50.929688 153.558594 49.359375 C 150.828125 47.246094 149.101562 42.613281 149.449219 38.34375 C 149.785156 34.265625 151.898438 30.976562 155.398438 29.082031 C 160.554688 26.292969 166.304688 27.28125 170.386719 31.664062 C 170.546875 31.839844 170.539062 32.109375 170.363281 32.269531 C 170.191406 32.429688 169.917969 32.421875 169.757812 32.246094 C 165.953125 28.164062 160.605469 27.238281 155.804688 29.835938 C 152.566406 31.585938 150.617188 34.632812 150.304688 38.414062 C 149.976562 42.417969 151.566406 46.738281 154.085938 48.683594 C 157.867188 51.609375 164.492188 51.597656 169.167969 48.65625 C 171.226562 47.363281 174.511719 44.40625 173.351562 39.179688 C 172.898438 37.109375 172.007812 35.140625 170.789062 33.484375 C 170.648438 33.296875 170.6875 33.027344 170.878906 32.890625 C 171.066406 32.75 171.339844 32.789062 171.480469 32.980469 C 172.773438 34.730469 173.707031 36.808594 174.191406 38.996094 C 175.121094 43.1875 173.457031 46.972656 169.625 49.382812 C 167.152344 50.9375 164.15625 51.714844 161.273438 51.714844 "/><path style=" stroke:none;fill-rule:nonzero;fill:#46484c;fill-opacity:1;" d="M 161.667969 44.878906 C 160.414062 44.878906 159.203125 44.539062 158.320312 43.855469 C 157.125 42.933594 156.371094 40.925781 156.523438 39.078125 C 156.667969 37.304688 157.589844 35.871094 159.113281 35.046875 C 161.046875 34 163.222656 34.183594 164.9375 35.535156 C 165.125 35.683594 165.15625 35.949219 165.007812 36.136719 C 164.859375 36.320312 164.589844 36.351562 164.40625 36.207031 C 162.945312 35.054688 161.167969 34.90625 159.523438 35.796875 C 157.90625 36.671875 157.464844 38.105469 157.378906 39.148438 C 157.25 40.703125 157.882812 42.4375 158.847656 43.183594 C 160.3125 44.316406 162.984375 44.300781 164.804688 43.15625 C 165.597656 42.652344 166.867188 41.511719 166.425781 39.5 C 166.238281 38.660156 165.875 37.863281 165.375 37.199219 C 165.230469 37.007812 165.269531 36.742188 165.460938 36.597656 C 165.648438 36.460938 165.917969 36.496094 166.0625 36.683594 C 166.636719 37.449219 167.050781 38.359375 167.261719 39.320312 C 167.667969 41.160156 166.941406 42.820312 165.261719 43.878906 C 164.199219 44.546875 162.910156 44.878906 161.667969 44.878906 "/><path style=" stroke:none;fill-rule:nonzero;fill:#f8a038;fill-opacity:1;" d="M 168.390625 39.335938 C 169.6875 45.183594 161.308594 47.679688 157.515625 44.75 C 155.046875 42.835938 153.875 36.582031 158.488281 34.089844 C 161.289062 32.574219 164.132812 33.28125 166.089844 35.167969 C 166.769531 34.65625 167.460938 34.144531 168.136719 33.644531 C 165.363281 30.722656 161.167969 29.550781 157.050781 31.78125 C 150.515625 35.316406 152.167969 44.167969 155.679688 46.875 C 161.039062 51.027344 172.90625 47.492188 171.078125 39.210938 C 170.679688 37.4375 169.902344 35.832031 168.867188 34.496094 C 168.199219 34.988281 167.511719 35.492188 166.832031 36.003906 C 167.566406 36.949219 168.109375 38.082031 168.390625 39.335938 "/><g clip-rule="nonzero" clip-path="url(#350c4708cb)"><path style=" stroke:none;fill-rule:nonzero;fill:#2575c5;fill-opacity:1;" d="M 176.355469 38.992188 C 179.246094 52.042969 160.542969 57.621094 152.074219 51.074219 C 146.554688 46.796875 143.941406 32.84375 154.242188 27.277344 C 160.925781 23.660156 167.738281 25.699219 172.105469 30.597656 C 172.726562 30.109375 173.367188 29.609375 174.03125 29.113281 C 168.886719 23.246094 160.792969 20.773438 152.863281 25.066406 C 140.726562 31.628906 143.800781 48.0625 150.316406 53.097656 C 160.277344 60.804688 182.308594 54.238281 178.910156 38.863281 C 178.179688 35.566406 176.746094 32.566406 174.820312 30.078125 C 174.136719 30.546875 173.472656 31.019531 172.832031 31.492188 C 174.488281 33.613281 175.730469 36.160156 176.355469 38.992188 "/></g><path style=" stroke:none;fill-rule:nonzero;fill:#e64488;fill-opacity:1;" d="M 160.507812 37.339844 C 161.410156 36.855469 162.3125 36.917969 163.058594 37.332031 C 163.277344 37.453125 161.953125 38.710938 162.351562 39.117188 C 162.882812 39.644531 164.011719 38.167969 164.152344 38.390625 C 164.367188 38.726562 164.523438 39.105469 164.613281 39.511719 C 165.148438 41.929688 161.679688 42.960938 160.113281 41.75 C 159.089844 40.957031 158.601562 38.371094 160.507812 37.339844 "/><g clip-rule="nonzero" clip-path="url(#f226da585d)"><path style=" stroke:none;fill-rule:nonzero;fill:#46484c;fill-opacity:1;" d="M 162.738281 38.613281 L 162.828125 38.804688 C 164.128906 37.449219 166.238281 35.902344 168.28125 34.398438 C 169.300781 33.648438 170.261719 32.941406 171.054688 32.304688 C 173.574219 30.285156 176.945312 28.121094 180.226562 26.078125 C 180.265625 25.945312 180.296875 25.808594 180.3125 25.703125 C 180.304688 25.703125 180.300781 25.707031 180.292969 25.707031 C 177.160156 27.097656 173.671875 29.890625 171.125 31.925781 C 170.320312 32.570312 169.355469 33.285156 168.332031 34.035156 C 166.277344 35.546875 163.960938 37.25 162.738281 38.613281 Z M 162.707031 40.007812 C 162.6875 40.007812 162.667969 40.007812 162.648438 40.003906 C 162.5 39.984375 162.375 39.890625 162.316406 39.757812 L 161.84375 38.714844 C 161.777344 38.566406 161.800781 38.390625 161.90625 38.265625 C 163.136719 36.792969 165.519531 35.042969 167.820312 33.347656 C 168.835938 32.601562 169.796875 31.894531 170.589844 31.261719 C 173.171875 29.195312 176.707031 26.363281 179.945312 24.929688 C 180.429688 24.710938 180.816406 24.785156 181.03125 25.09375 C 181.320312 25.511719 181.09375 26.226562 180.984375 26.515625 C 180.949219 26.601562 180.890625 26.675781 180.808594 26.722656 C 177.511719 28.777344 174.109375 30.953125 171.59375 32.972656 C 170.789062 33.617188 169.820312 34.328125 168.789062 35.085938 C 166.636719 36.667969 164.195312 38.464844 163.039062 39.855469 C 162.953125 39.953125 162.832031 40.007812 162.707031 40.007812 "/><path style=" stroke:none;fill-rule:nonzero;fill:#46484c;fill-opacity:1;" d="M 162.738281 38.613281 L 162.828125 38.804688 C 164.128906 37.449219 166.238281 35.902344 168.28125 34.398438 C 169.300781 33.648438 170.261719 32.941406 171.054688 32.304688 C 173.574219 30.285156 176.945312 28.121094 180.226562 26.078125 C 180.265625 25.945312 180.296875 25.808594 180.3125 25.703125 C 180.304688 25.703125 180.300781 25.707031 180.292969 25.707031 C 177.160156 27.097656 173.671875 29.890625 171.125 31.925781 C 170.320312 32.570312 169.355469 33.285156 168.332031 34.035156 C 166.277344 35.546875 163.960938 37.25 162.738281 38.613281 Z M 162.707031 40.007812 C 162.6875 40.007812 162.667969 40.007812 162.648438 40.003906 C 162.5 39.984375 162.375 39.890625 162.316406 39.757812 L 161.84375 38.714844 C 161.777344 38.566406 161.800781 38.390625 161.90625 38.265625 C 163.136719 36.792969 165.519531 35.042969 167.820312 33.347656 C 168.835938 32.601562 169.796875 31.894531 170.589844 31.261719 C 173.171875 29.195312 176.707031 26.363281 179.945312 24.929688 C 180.429688 24.710938 180.816406 24.785156 181.03125 25.09375 C 181.320312 25.511719 181.09375 26.226562 180.984375 26.515625 C 180.949219 26.601562 180.890625 26.675781 180.808594 26.722656 C 177.511719 28.777344 174.109375 30.953125 171.59375 32.972656 C 170.789062 33.617188 169.820312 34.328125 168.789062 35.085938 C 166.636719 36.667969 164.195312 38.464844 163.039062 39.855469 C 162.953125 39.953125 162.832031 40.007812 162.707031 40.007812 "/></g><g clip-rule="nonzero" clip-path="url(#a3ea064f49)"><path style=" stroke:none;fill-rule:nonzero;fill:#46484c;fill-opacity:1;" d="M 175.808594 28.007812 C 175.804688 28.007812 175.804688 28.007812 175.804688 28.007812 C 175.566406 28.007812 175.375 27.816406 175.378906 27.578125 C 175.378906 27.371094 175.476562 24.824219 175.71875 24.289062 C 175.742188 24.234375 175.777344 24.183594 175.820312 24.144531 C 176.324219 23.691406 177.925781 23.046875 178.828125 22.929688 C 178.957031 22.917969 179.078125 22.953125 179.171875 23.035156 C 179.265625 23.121094 179.316406 23.238281 179.3125 23.363281 C 179.289062 24.285156 179.101562 25.226562 178.910156 26.105469 C 178.859375 26.335938 178.636719 26.484375 178.398438 26.433594 C 178.167969 26.382812 178.019531 26.152344 178.070312 25.921875 C 178.21875 25.261719 178.359375 24.566406 178.417969 23.886719 C 177.695312 24.085938 176.8125 24.480469 176.480469 24.71875 C 176.363281 25.183594 176.238281 26.933594 176.238281 27.582031 C 176.234375 27.820312 176.042969 28.007812 175.808594 28.007812 "/></g><g clip-rule="nonzero" clip-path="url(#385a7d9331)"><path style=" stroke:none;fill-rule:nonzero;fill:#46484c;fill-opacity:1;" d="M 179.011719 30.871094 C 179.003906 30.871094 178.996094 30.871094 178.984375 30.871094 C 178.421875 30.832031 176.21875 29.789062 175.90625 29.628906 C 175.695312 29.519531 175.613281 29.261719 175.722656 29.050781 C 175.832031 28.84375 176.097656 28.761719 176.304688 28.871094 C 176.859375 29.164062 178.488281 29.878906 178.960938 30 C 179.328125 29.820312 180.089844 29.230469 180.605469 28.683594 C 179.976562 28.417969 179.292969 28.21875 178.636719 28.039062 C 178.410156 27.972656 178.273438 27.738281 178.339844 27.511719 C 178.402344 27.285156 178.640625 27.152344 178.867188 27.214844 C 179.742188 27.453125 180.664062 27.734375 181.488281 28.144531 C 181.597656 28.199219 181.679688 28.300781 181.710938 28.421875 C 181.742188 28.542969 181.714844 28.671875 181.644531 28.773438 C 181.125 29.503906 179.777344 30.628906 179.15625 30.847656 C 179.109375 30.863281 179.0625 30.871094 179.011719 30.871094 "/></g><path style=" stroke:none;fill-rule:nonzero;fill:#46484c;fill-opacity:1;" d="M 177.148438 27.3125 C 176.910156 27.3125 176.71875 27.121094 176.71875 26.886719 L 176.71875 23.871094 C 176.71875 23.632812 176.910156 23.441406 177.148438 23.441406 C 177.386719 23.441406 177.578125 23.632812 177.578125 23.871094 L 177.578125 26.886719 C 177.578125 27.121094 177.386719 27.3125 177.148438 27.3125 "/><path style=" stroke:none;fill-rule:nonzero;fill:#46484c;fill-opacity:1;" d="M 180.175781 29.746094 C 180.105469 29.746094 180.03125 29.726562 179.964844 29.691406 C 179.574219 29.46875 179.066406 29.308594 178.535156 29.132812 C 178.140625 29.007812 177.746094 28.878906 177.386719 28.726562 C 177.167969 28.632812 177.070312 28.382812 177.160156 28.164062 C 177.253906 27.949219 177.503906 27.847656 177.726562 27.941406 C 178.0625 28.085938 178.429688 28.203125 178.800781 28.320312 C 179.347656 28.5 179.921875 28.683594 180.386719 28.945312 C 180.59375 29.0625 180.667969 29.324219 180.550781 29.527344 C 180.472656 29.667969 180.328125 29.746094 180.175781 29.746094 "/><g style="fill:#2474c5;fill-opacity:1;"><g transform="translate(16.3817, 52.603241)"><path style="stroke:none" d="M 12.421875 0.34375 C 11.085938 0.34375 9.789062 0.160156 8.53125 -0.203125 C 7.269531 -0.578125 6.109375 -1.128906 5.046875 -1.859375 C 3.992188 -2.585938 3.109375 -3.5 2.390625 -4.59375 C 1.671875 -5.695312 1.191406 -6.984375 0.953125 -8.453125 L 6.296875 -9.8125 C 6.421875 -8.570312 6.773438 -7.554688 7.359375 -6.765625 C 7.953125 -5.972656 8.691406 -5.382812 9.578125 -5 C 10.472656 -4.613281 11.445312 -4.421875 12.5 -4.421875 C 13.570312 -4.421875 14.472656 -4.59375 15.203125 -4.9375 C 15.929688 -5.28125 16.484375 -5.738281 16.859375 -6.3125 C 17.242188 -6.894531 17.4375 -7.539062 17.4375 -8.25 C 17.4375 -9.019531 17.234375 -9.679688 16.828125 -10.234375 C 16.421875 -10.785156 15.875 -11.257812 15.1875 -11.65625 C 14.5 -12.0625 13.722656 -12.4375 12.859375 -12.78125 C 12.003906 -13.132812 11.113281 -13.488281 10.1875 -13.84375 C 9.269531 -14.207031 8.378906 -14.617188 7.515625 -15.078125 C 6.660156 -15.535156 5.890625 -16.078125 5.203125 -16.703125 C 4.515625 -17.335938 3.96875 -18.09375 3.5625 -18.96875 C 3.15625 -19.851562 2.953125 -20.90625 2.953125 -22.125 C 2.953125 -23.457031 3.195312 -24.632812 3.6875 -25.65625 C 4.175781 -26.675781 4.851562 -27.539062 5.71875 -28.25 C 6.59375 -28.957031 7.59375 -29.488281 8.71875 -29.84375 C 9.84375 -30.207031 11.035156 -30.390625 12.296875 -30.390625 C 14.140625 -30.390625 15.859375 -29.96875 17.453125 -29.125 C 19.054688 -28.289062 20.375 -26.960938 21.40625 -25.140625 L 16.9375 -22.40625 C 16.414062 -23.414062 15.726562 -24.203125 14.875 -24.765625 C 14.03125 -25.328125 13.109375 -25.609375 12.109375 -25.609375 C 11.398438 -25.609375 10.757812 -25.472656 10.1875 -25.203125 C 9.613281 -24.929688 9.160156 -24.554688 8.828125 -24.078125 C 8.492188 -23.597656 8.328125 -23.039062 8.328125 -22.40625 C 8.328125 -21.695312 8.53125 -21.09375 8.9375 -20.59375 C 9.351562 -20.09375 9.898438 -19.65625 10.578125 -19.28125 C 11.265625 -18.90625 12.039062 -18.550781 12.90625 -18.21875 C 13.769531 -17.882812 14.660156 -17.535156 15.578125 -17.171875 C 16.492188 -16.816406 17.382812 -16.40625 18.25 -15.9375 C 19.113281 -15.46875 19.882812 -14.910156 20.5625 -14.265625 C 21.25 -13.628906 21.796875 -12.859375 22.203125 -11.953125 C 22.617188 -11.046875 22.828125 -9.972656 22.828125 -8.734375 C 22.828125 -7.316406 22.550781 -6.046875 22 -4.921875 C 21.457031 -3.804688 20.707031 -2.851562 19.75 -2.0625 C 18.800781 -1.28125 17.695312 -0.679688 16.4375 -0.265625 C 15.1875 0.140625 13.847656 0.34375 12.421875 0.34375 Z M 12.421875 0.34375 "/></g></g><g style="fill:#2474c5;fill-opacity:1;"><g transform="translate(40.47582, 52.603241)"><path style="stroke:none" d="M 3.109375 0 L 3.109375 -29.953125 L 8.28125 -29.953125 L 8.28125 -12.375 L 16.28125 -21.171875 L 23 -21.171875 L 15.0625 -12.96875 L 23.859375 0 L 17.765625 0 L 11.546875 -9.8125 L 8.28125 -6.203125 L 8.28125 0 Z M 3.109375 0 "/></g></g><g style="fill:#2474c5;fill-opacity:1;"><g transform="translate(64.167313, 52.603241)"><path style="stroke:none" d="M 2.953125 -25.171875 L 2.953125 -29.953125 L 8.328125 -29.953125 L 8.328125 -25.171875 Z M 3.078125 0 L 3.078125 -21.171875 L 8.203125 -21.171875 L 8.203125 0 Z M 3.078125 0 "/></g></g><g style="fill:#2474c5;fill-opacity:1;"><g transform="translate(75.440903, 52.603241)"><path style="stroke:none" d="M 7.375 0.421875 C 6.570312 0.421875 5.832031 0.289062 5.15625 0.03125 C 4.488281 -0.21875 3.953125 -0.675781 3.546875 -1.34375 C 3.148438 -2.019531 2.953125 -2.976562 2.953125 -4.21875 L 2.953125 -29.953125 L 8.125 -29.953125 L 8.125 -5.640625 C 8.125 -5.140625 8.273438 -4.773438 8.578125 -4.546875 C 8.878906 -4.328125 9.289062 -4.21875 9.8125 -4.21875 C 9.96875 -4.21875 10.175781 -4.226562 10.4375 -4.25 C 10.695312 -4.269531 10.960938 -4.300781 11.234375 -4.34375 L 11.234375 0 C 10.691406 0.09375 10.066406 0.1875 9.359375 0.28125 C 8.660156 0.375 8 0.421875 7.375 0.421875 Z M 7.375 0.421875 "/></g></g><g style="fill:#2474c5;fill-opacity:1;"><g transform="translate(87.583323, 52.603241)"><path style="stroke:none" d="M 7.375 0.421875 C 6.570312 0.421875 5.832031 0.289062 5.15625 0.03125 C 4.488281 -0.21875 3.953125 -0.675781 3.546875 -1.34375 C 3.148438 -2.019531 2.953125 -2.976562 2.953125 -4.21875 L 2.953125 -29.953125 L 8.125 -29.953125 L 8.125 -5.640625 C 8.125 -5.140625 8.273438 -4.773438 8.578125 -4.546875 C 8.878906 -4.328125 9.289062 -4.21875 9.8125 -4.21875 C 9.96875 -4.21875 10.175781 -4.226562 10.4375 -4.25 C 10.695312 -4.269531 10.960938 -4.300781 11.234375 -4.34375 L 11.234375 0 C 10.691406 0.09375 10.066406 0.1875 9.359375 0.28125 C 8.660156 0.375 8 0.421875 7.375 0.421875 Z M 7.375 0.421875 "/></g></g><g style="fill:#f9b15c;fill-opacity:1;"><g transform="translate(99.731627, 52.603241)"><path style="stroke:none" d="M 12.421875 0.34375 C 11.085938 0.34375 9.789062 0.160156 8.53125 -0.203125 C 7.269531 -0.578125 6.109375 -1.128906 5.046875 -1.859375 C 3.992188 -2.585938 3.109375 -3.5 2.390625 -4.59375 C 1.671875 -5.695312 1.191406 -6.984375 0.953125 -8.453125 L 6.296875 -9.8125 C 6.421875 -8.570312 6.773438 -7.554688 7.359375 -6.765625 C 7.953125 -5.972656 8.691406 -5.382812 9.578125 -5 C 10.472656 -4.613281 11.445312 -4.421875 12.5 -4.421875 C 13.570312 -4.421875 14.472656 -4.59375 15.203125 -4.9375 C 15.929688 -5.28125 16.484375 -5.738281 16.859375 -6.3125 C 17.242188 -6.894531 17.4375 -7.539062 17.4375 -8.25 C 17.4375 -9.019531 17.234375 -9.679688 16.828125 -10.234375 C 16.421875 -10.785156 15.875 -11.257812 15.1875 -11.65625 C 14.5 -12.0625 13.722656 -12.4375 12.859375 -12.78125 C 12.003906 -13.132812 11.113281 -13.488281 10.1875 -13.84375 C 9.269531 -14.207031 8.378906 -14.617188 7.515625 -15.078125 C 6.660156 -15.535156 5.890625 -16.078125 5.203125 -16.703125 C 4.515625 -17.335938 3.96875 -18.09375 3.5625 -18.96875 C 3.15625 -19.851562 2.953125 -20.90625 2.953125 -22.125 C 2.953125 -23.457031 3.195312 -24.632812 3.6875 -25.65625 C 4.175781 -26.675781 4.851562 -27.539062 5.71875 -28.25 C 6.59375 -28.957031 7.59375 -29.488281 8.71875 -29.84375 C 9.84375 -30.207031 11.035156 -30.390625 12.296875 -30.390625 C 14.140625 -30.390625 15.859375 -29.96875 17.453125 -29.125 C 19.054688 -28.289062 20.375 -26.960938 21.40625 -25.140625 L 16.9375 -22.40625 C 16.414062 -23.414062 15.726562 -24.203125 14.875 -24.765625 C 14.03125 -25.328125 13.109375 -25.609375 12.109375 -25.609375 C 11.398438 -25.609375 10.757812 -25.472656 10.1875 -25.203125 C 9.613281 -24.929688 9.160156 -24.554688 8.828125 -24.078125 C 8.492188 -23.597656 8.328125 -23.039062 8.328125 -22.40625 C 8.328125 -21.695312 8.53125 -21.09375 8.9375 -20.59375 C 9.351562 -20.09375 9.898438 -19.65625 10.578125 -19.28125 C 11.265625 -18.90625 12.039062 -18.550781 12.90625 -18.21875 C 13.769531 -17.882812 14.660156 -17.535156 15.578125 -17.171875 C 16.492188 -16.816406 17.382812 -16.40625 18.25 -15.9375 C 19.113281 -15.46875 19.882812 -14.910156 20.5625 -14.265625 C 21.25 -13.628906 21.796875 -12.859375 22.203125 -11.953125 C 22.617188 -11.046875 22.828125 -9.972656 22.828125 -8.734375 C 22.828125 -7.316406 22.550781 -6.046875 22 -4.921875 C 21.457031 -3.804688 20.707031 -2.851562 19.75 -2.0625 C 18.800781 -1.28125 17.695312 -0.679688 16.4375 -0.265625 C 15.1875 0.140625 13.847656 0.34375 12.421875 0.34375 Z M 12.421875 0.34375 "/></g></g><g style="fill:#f9b15c;fill-opacity:1;"><g transform="translate(123.825747, 52.603241)"><path style="stroke:none" d="M 11.46875 0.421875 C 9.738281 0.421875 8.226562 0.117188 6.9375 -0.484375 C 5.65625 -1.097656 4.59375 -1.921875 3.75 -2.953125 C 2.90625 -3.992188 2.269531 -5.171875 1.84375 -6.484375 C 1.414062 -7.796875 1.203125 -9.15625 1.203125 -10.5625 C 1.203125 -11.9375 1.410156 -13.285156 1.828125 -14.609375 C 2.242188 -15.929688 2.875 -17.117188 3.71875 -18.171875 C 4.5625 -19.222656 5.625 -20.0625 6.90625 -20.6875 C 8.195312 -21.3125 9.703125 -21.625 11.421875 -21.625 C 13.523438 -21.625 15.375 -21.109375 16.96875 -20.078125 C 18.570312 -19.046875 19.773438 -17.472656 20.578125 -15.359375 L 15.65625 -13.453125 C 15.394531 -14.472656 14.890625 -15.304688 14.140625 -15.953125 C 13.390625 -16.609375 12.484375 -16.9375 11.421875 -16.9375 C 10.535156 -16.9375 9.773438 -16.753906 9.140625 -16.390625 C 8.515625 -16.035156 8.003906 -15.550781 7.609375 -14.9375 C 7.210938 -14.320312 6.921875 -13.632812 6.734375 -12.875 C 6.554688 -12.113281 6.46875 -11.34375 6.46875 -10.5625 C 6.46875 -9.75 6.554688 -8.96875 6.734375 -8.21875 C 6.921875 -7.46875 7.207031 -6.789062 7.59375 -6.1875 C 7.988281 -5.59375 8.5 -5.125 9.125 -4.78125 C 9.75 -4.4375 10.515625 -4.265625 11.421875 -4.265625 C 12.472656 -4.265625 13.375 -4.578125 14.125 -5.203125 C 14.882812 -5.828125 15.394531 -6.632812 15.65625 -7.625 L 20.375 -5.84375 C 19.90625 -4.53125 19.238281 -3.40625 18.375 -2.46875 C 17.507812 -1.53125 16.488281 -0.8125 15.3125 -0.3125 C 14.144531 0.175781 12.863281 0.421875 11.46875 0.421875 Z M 11.46875 0.421875 "/></g></g><g style="fill:#f9b15c;fill-opacity:1;"><g transform="translate(145.104453, 52.603241)"><path style="stroke:none" d=""/></g></g><g style="fill:#f9b15c;fill-opacity:1;"><g transform="translate(155.530405, 52.603241)"><path style="stroke:none" d=""/></g></g><g style="fill:#f9b15c;fill-opacity:1;"><g transform="translate(165.956357, 52.603241)"><path style="stroke:none" d=""/></g></g><g style="fill:#f9b15c;fill-opacity:1;"><g transform="translate(176.382445, 52.603241)"><path style="stroke:none" d="M 3.109375 9.28125 L 3.109375 -21.171875 L 8.375 -21.171875 L 8.375 -19.046875 C 9.125 -19.972656 10.019531 -20.632812 11.0625 -21.03125 C 12.101562 -21.425781 13.191406 -21.625 14.328125 -21.625 C 15.804688 -21.625 17.113281 -21.328125 18.25 -20.734375 C 19.394531 -20.148438 20.351562 -19.34375 21.125 -18.3125 C 21.90625 -17.289062 22.492188 -16.113281 22.890625 -14.78125 C 23.285156 -13.457031 23.484375 -12.0625 23.484375 -10.59375 C 23.484375 -9.125 23.285156 -7.726562 22.890625 -6.40625 C 22.492188 -5.082031 21.910156 -3.910156 21.140625 -2.890625 C 20.367188 -1.867188 19.421875 -1.0625 18.296875 -0.46875 C 17.171875 0.125 15.875 0.421875 14.40625 0.421875 C 13.289062 0.421875 12.191406 0.222656 11.109375 -0.171875 C 10.035156 -0.566406 9.125 -1.21875 8.375 -2.125 L 8.375 9.28125 Z M 13.0625 -4.34375 C 14.25 -4.34375 15.222656 -4.617188 15.984375 -5.171875 C 16.742188 -5.722656 17.304688 -6.46875 17.671875 -7.40625 C 18.046875 -8.34375 18.234375 -9.40625 18.234375 -10.59375 C 18.234375 -11.78125 18.046875 -12.859375 17.671875 -13.828125 C 17.304688 -14.796875 16.742188 -15.5625 15.984375 -16.125 C 15.222656 -16.695312 14.25 -16.984375 13.0625 -16.984375 C 11.882812 -16.984375 10.910156 -16.695312 10.140625 -16.125 C 9.378906 -15.5625 8.816406 -14.796875 8.453125 -13.828125 C 8.085938 -12.859375 7.90625 -11.78125 7.90625 -10.59375 C 7.90625 -9.40625 8.085938 -8.34375 8.453125 -7.40625 C 8.816406 -6.46875 9.378906 -5.722656 10.140625 -5.171875 C 10.910156 -4.617188 11.882812 -4.34375 13.0625 -4.34375 Z M 13.0625 -4.34375 "/></g></g><g style="fill:#f9b15c;fill-opacity:1;"><g transform="translate(201.197058, 52.603241)"><path style="stroke:none" d="M 11.890625 0.421875 C 10.066406 0.421875 8.484375 0.125 7.140625 -0.46875 C 5.796875 -1.0625 4.675781 -1.875 3.78125 -2.90625 C 2.894531 -3.9375 2.238281 -5.101562 1.8125 -6.40625 C 1.382812 -7.71875 1.171875 -9.085938 1.171875 -10.515625 C 1.171875 -11.898438 1.375 -13.25 1.78125 -14.5625 C 2.1875 -15.875 2.8125 -17.0625 3.65625 -18.125 C 4.507812 -19.195312 5.585938 -20.046875 6.890625 -20.671875 C 8.203125 -21.304688 9.753906 -21.625 11.546875 -21.625 C 13.035156 -21.625 14.328125 -21.40625 15.421875 -20.96875 C 16.515625 -20.539062 17.441406 -19.957031 18.203125 -19.21875 C 18.960938 -18.488281 19.578125 -17.660156 20.046875 -16.734375 C 20.515625 -15.804688 20.847656 -14.84375 21.046875 -13.84375 C 21.253906 -12.851562 21.359375 -11.882812 21.359375 -10.9375 C 21.359375 -10.5 21.34375 -10.085938 21.3125 -9.703125 C 21.28125 -9.328125 21.234375 -9.0625 21.171875 -8.90625 L 6.640625 -8.90625 C 6.785156 -7.988281 7.0625 -7.175781 7.46875 -6.46875 C 7.875 -5.769531 8.441406 -5.226562 9.171875 -4.84375 C 9.910156 -4.457031 10.832031 -4.265625 11.9375 -4.265625 C 12.894531 -4.265625 13.796875 -4.429688 14.640625 -4.765625 C 15.492188 -5.109375 16.285156 -5.6875 17.015625 -6.5 L 20.578125 -3.390625 C 19.421875 -2.109375 18.128906 -1.148438 16.703125 -0.515625 C 15.273438 0.109375 13.671875 0.421875 11.890625 0.421875 Z M 6.640625 -12.625 L 16.28125 -12.625 C 16.101562 -14.144531 15.597656 -15.300781 14.765625 -16.09375 C 13.929688 -16.882812 12.847656 -17.28125 11.515625 -17.28125 C 10.492188 -17.28125 9.65625 -17.078125 9 -16.671875 C 8.34375 -16.265625 7.828125 -15.710938 7.453125 -15.015625 C 7.078125 -14.316406 6.804688 -13.519531 6.640625 -12.625 Z M 6.640625 -12.625 "/></g></g></g></svg>